<svg t="1586674133388" class="icon" viewBox="0 0 1024 1024" version="1.1" xmlns="http://www.w3.org/2000/svg" p-id="8572" width="200" height="200"><path d="M894.566 955.477H184.064c-8.602 0-15.514-6.041-15.514-13.465V124.757c0-7.424 6.964-13.465 15.514-13.465h710.502c8.602 0 15.514 6.041 15.514 13.465v817.306c0 7.424-6.963 13.414-15.514 13.414z" fill="#69EBFC" p-id="8573"></path><path d="M894.566 910.933H184.064c-8.602 0-15.514-6.963-15.514-15.513v44.544c0 8.601 6.964 15.513 15.514 15.513h710.502c8.602 0 15.514-6.963 15.514-15.513V895.42c0 8.55-6.963 15.513-15.514 15.513z" fill="#5ED4E3" p-id="8574"></path><path d="M721.46 646.434H369.92c-11.366 0-20.634-10.189-20.634-22.681 0-12.544 9.216-22.682 20.634-22.682h351.54c11.366 0 20.633 10.189 20.633 22.682-0.051 12.544-9.267 22.681-20.634 22.681z m0-131.686H369.92c-11.366 0-20.634-10.19-20.634-22.682 0-12.544 9.216-22.681 20.634-22.681h351.54c11.366 0 20.633 10.188 20.633 22.681-0.051 12.493-9.267 22.682-20.634 22.682z m0 264.345H369.92c-11.366 0-20.634-10.188-20.634-22.681 0-12.544 9.216-22.682 20.634-22.682h351.54c11.366 0 20.633 10.189 20.633 22.682-0.051 12.493-9.267 22.681-20.634 22.681z m118.22-486.45l-68.66-43.367-68.658 43.366v-186.01c0-4.147 3.89-7.475 8.652-7.475h120.013c4.762 0 8.653 3.38 8.653 7.476v186.01z" fill="#7A1FFA" p-id="8575"></path><path d="M831.027 99.157H711.014c-4.761 0-8.652 3.38-8.652 7.476v17.356c0-4.147 3.89-7.475 8.652-7.475h120.013c4.762 0 8.653 3.38 8.653 7.475v-17.356c0-4.148-3.891-7.476-8.653-7.476z" fill="#8F95E6" p-id="8576"></path><path d="M191.898 582.588a21.606 21.606 0 1 0 43.223-0.01 21.606 21.606 0 0 0-43.223 0.01z m0-135.475a21.606 21.606 0 0 0 43.212 0 21.606 21.606 0 0 0-43.212 0z m0-125.287a21.606 21.606 0 1 0 43.223-0.01 21.606 21.606 0 0 0-43.223 0.01z m0-130.406a21.606 21.606 0 0 0 43.212 0 21.606 21.606 0 0 0-43.212 0z" fill="#382F8B" p-id="8577"></path><path d="M219.494 581a12.936 12.936 0 0 1-12.953 12.954h-79.667a12.984 12.984 0 0 1 0-25.958h79.667c7.168 0.05 12.953 5.837 12.953 13.005z m0-130.406a12.936 12.936 0 0 1-12.953 12.954h-79.667a12.984 12.984 0 0 1 0-25.959h79.667c7.168 0.052 12.953 5.837 12.953 13.005z m0-130.355a12.936 12.936 0 0 1-12.953 12.954h-79.667a12.984 12.984 0 0 1 0-25.959h79.667c7.168 0 12.953 5.837 12.953 13.005z m0-130.406a12.936 12.936 0 0 1-12.953 12.953h-79.667a12.984 12.984 0 0 1 0-25.958h79.667c7.168 0.05 12.953 5.837 12.953 13.005z" fill="#FF8354" p-id="8578"></path><path d="M191.898 843.4a21.606 21.606 0 1 0 43.223-0.01 21.606 21.606 0 0 0-43.223 0.01z m0-135.526a21.606 21.606 0 1 0 43.223-0.01 21.606 21.606 0 0 0-43.223 0.01z" fill="#382F8B" p-id="8579"></path><path d="M219.494 841.762a12.936 12.936 0 0 1-12.953 12.954h-79.667a12.984 12.984 0 0 1 0-25.959h79.667c7.168 0.052 12.953 5.837 12.953 13.005z m0-130.355a12.936 12.936 0 0 1-12.953 12.954h-79.667a12.984 12.984 0 0 1 0-25.959h79.667c7.168 0 12.953 5.837 12.953 13.005z" fill="#FF8354" p-id="8580"></path></svg>